<?xml version="1.0" encoding="utf-8"?>
<!-- Generator: Adobe Illustrator 17.1.0, SVG Export Plug-In . SVG Version: 6.00 Build 0)  -->
<svg version="1.2" baseProfile="tiny" xmlns="http://www.w3.org/2000/svg" xmlns:xlink="http://www.w3.org/1999/xlink" x="0px"
	 y="0px" viewBox="0 0 1224 768" xml:space="preserve">
	<rect fill="#F5F7FA" width="1223" height="768"/>
</g>
<g id="flowchart">
<!-- ez a hatter aktiv elemnek -->
	<path fill="#AAB2BD" d="M415,440c0,2.8-2.2,5-5,5H255c-2.8,0-5-2.2-5-5v-45c0-2.8,2.2-5,5-5h155c2.8,0,5,2.2,5,5V440z"/>
<!-- hatter vege -->
	<path fill="#AAB2BD" stroke="#FFFFFF" stroke-miterlimit="10" d="M409.5,434.5c0,2.8-2.2,5-5,5h-145c-2.8,0-5-2.2-5-5v-35
		c0-2.8,2.2-5,5-5h145c2.8,0,5,2.2,5,5V434.5z"/>
	<g>
	</g>
	<polygon fill="#AAB2BD" points="245,257.5 240,252.5 240,262.5 	"/>
	<g>
		<path fill="#FFFFFF" d="M182,360.5c0,1.4-1.1,2.5-2.5,2.5h-155c-1.4,0-2.5-1.1-2.5-2.5v-45c0-1.4,1.1-2.5,2.5-2.5h155
			c1.4,0,2.5,1.1,2.5,2.5V360.5z"/>
		<g>
			<path fill="#AAB2BD" d="M180,315v45H25v-45H180 M180,310H25c-2.8,0-5,2.2-5,5v45c0,2.8,2.2,5,5,5h155c2.8,0,5-2.2,5-5v-45
				C185,312.2,182.8,310,180,310L180,310z"/>
		</g>
	</g>
	<g>
		<path fill="#FFFFFF" d="M412,280.5c0,1.4-1.1,2.5-2.5,2.5h-155c-1.4,0-2.5-1.1-2.5-2.5v-45c0-1.4,1.1-2.5,2.5-2.5h155
			c1.4,0,2.5,1.1,2.5,2.5V280.5z"/>
		<path fill="#EBEEF2" d="M410,235v45H255v-45H410 M410,230H255c-2.8,0-5,2.2-5,5v45c0,2.8,2.2,5,5,5h155c2.8,0,5-2.2,5-5v-45
			C415,232.2,412.8,230,410,230L410,230z"/>
	</g>
	<g>
		<path fill="#FFFFFF" d="M412,360.5c0,1.4-1.1,2.5-2.5,2.5h-155c-1.4,0-2.5-1.1-2.5-2.5v-45c0-1.4,1.1-2.5,2.5-2.5h155
			c1.4,0,2.5,1.1,2.5,2.5V360.5z"/>
		<path fill="#AAB2BD" d="M410,315v45H255v-45H410 M410,310H255c-2.8,0-5,2.2-5,5v45c0,2.8,2.2,5,5,5h155c2.8,0,5-2.2,5-5v-45
			C415,312.2,412.8,310,410,310L410,310z"/>
	</g>
	<polygon fill="#AAB2BD" points="505,417.5 500,422.5 500,412.5 	"/>
	<g>
		<path fill="#FFFFFF" d="M672,440.5c0,1.4-1.1,2.5-2.5,2.5h-155c-1.4,0-2.5-1.1-2.5-2.5v-45c0-1.4,1.1-2.5,2.5-2.5h155
			c1.4,0,2.5,1.1,2.5,2.5V440.5z"/>
		<path fill="#AAB2BD" d="M670,395v45H515v-45H670 M670,390H515c-2.8,0-5,2.2-5,5v45c0,2.8,2.2,5,5,5h155c2.8,0,5-2.2,5-5v-45
			C675,392.2,672.8,390,670,390L670,390z"/>
	</g>
	<g>
		<path fill="#FFFFFF" d="M672,280.5c0,1.4-1.1,2.5-2.5,2.5h-155c-1.4,0-2.5-1.1-2.5-2.5v-45c0-1.4,1.1-2.5,2.5-2.5h155
			c1.4,0,2.5,1.1,2.5,2.5V280.5z"/>
		<path fill="#AAB2BD" d="M670,235v45H515v-45H670 M670,230H515c-2.8,0-5,2.2-5,5v45c0,2.8,2.2,5,5,5h155c2.8,0,5-2.2,5-5v-45
			C675,232.2,672.8,230,670,230L670,230z"/>
	</g>
	<g>
		<path fill="#FFFFFF" d="M902,280.5c0,1.4-1.1,2.5-2.5,2.5h-155c-1.4,0-2.5-1.1-2.5-2.5v-45c0-1.4,1.1-2.5,2.5-2.5h155
			c1.4,0,2.5,1.1,2.5,2.5V280.5z"/>
		<path fill="#AAB2BD" d="M900,235v45H745v-45H900 M900,230H745c-2.8,0-5,2.2-5,5v45c0,2.8,2.2,5,5,5h155c2.8,0,5-2.2,5-5v-45
			C905,232.2,902.8,230,900,230L900,230z"/>
	</g>
	<g>
		<path fill="#FFFFFF" d="M672,360.5c0,1.4-1.1,2.5-2.5,2.5h-155c-1.4,0-2.5-1.1-2.5-2.5v-45c0-1.4,1.1-2.5,2.5-2.5h155
			c1.4,0,2.5,1.1,2.5,2.5V360.5z"/>
		<path fill="#AAB2BD" d="M670,315v45H515v-45H670 M670,310H515c-2.8,0-5,2.2-5,5v45c0,2.8,2.2,5,5,5h155c2.8,0,5-2.2,5-5v-45
			C675,312.2,672.8,310,670,310L670,310z"/>
	</g>
	<g>
		<circle fill="#AAB2BD" cx="722.5" cy="497.5" r="2.5"/>
	</g>
	<g>
		<path fill="#FFFFFF" d="M902,520.5c0,1.4-1.1,2.5-2.5,2.5h-155c-1.4,0-2.5-1.1-2.5-2.5v-45c0-1.4,1.1-2.5,2.5-2.5h155
			c1.4,0,2.5,1.1,2.5,2.5V520.5z"/>
		<path fill="#AAB2BD" d="M900,475v45H745v-45H900 M900,470H745c-2.8,0-5,2.2-5,5v45c0,2.8,2.2,5,5,5h155c2.8,0,5-2.2,5-5v-45
			C905,472.2,902.8,470,900,470L900,470z"/>
	</g>
	<g>
		<circle fill="#AAB2BD" cx="722.5" cy="97.5" r="2.5"/>
	</g>
	<g>
		<path fill="#FFFFFF" d="M672,200.5c0,1.4-1.1,2.5-2.5,2.5h-155c-1.4,0-2.5-1.1-2.5-2.5v-45c0-1.4,1.1-2.5,2.5-2.5h155
			c1.4,0,2.5,1.1,2.5,2.5V200.5z"/>
		<path fill="#AAB2BD" d="M670,155v45H515v-45H670 M670,150H515c-2.8,0-5,2.2-5,5v45c0,2.8,2.2,5,5,5h155c2.8,0,5-2.2,5-5v-45
			C675,152.2,672.8,150,670,150L670,150z"/>
	</g>
	<g>
		<path fill="#FFFFFF" d="M672,120.5c0,1.4-1.1,2.5-2.5,2.5h-155c-1.4,0-2.5-1.1-2.5-2.5v-45c0-1.4,1.1-2.5,2.5-2.5h155
			c1.4,0,2.5,1.1,2.5,2.5V120.5z"/>
		<path fill="#AAB2BD" d="M670,75v45H515V75H670 M670,70H515c-2.8,0-5,2.2-5,5v45c0,2.8,2.2,5,5,5h155c2.8,0,5-2.2,5-5V75
			C675,72.2,672.8,70,670,70L670,70z"/>
	</g>
	<g>
		<path fill="#FFFFFF" d="M902,120.5c0,1.4-1.1,2.5-2.5,2.5h-155c-1.4,0-2.5-1.1-2.5-2.5v-45c0-1.4,1.1-2.5,2.5-2.5h155
			c1.4,0,2.5,1.1,2.5,2.5V120.5z"/>
		<path fill="#AAB2BD" d="M900,75v45H745V75H900 M900,70H745c-2.8,0-5,2.2-5,5v45c0,2.8,2.2,5,5,5h155c2.8,0,5-2.2,5-5V75
			C905,72.2,902.8,70,900,70L900,70z"/>
	</g>
	<g>
		<path fill="#DA4453" d="M902.5,105c-4.1,0-7.5-3.4-7.5-7.5s3.4-7.5,7.5-7.5s7.5,3.4,7.5,7.5S906.6,105,902.5,105z"/>
		<path fill="#AAB2BD" d="M902.5,92.5c2.8,0,5,2.2,5,5s-2.2,5-5,5s-5-2.2-5-5S899.7,92.5,902.5,92.5 M902.5,87.5
			c-5.5,0-10,4.5-10,10s4.5,10,10,10s10-4.5,10-10S908,87.5,902.5,87.5L902.5,87.5z"/>
	</g>
	<path fill="#FFFFFF" d="M902.5,92.5c2.8,0,5,2.2,5,5s-2.2,5-5,5s-5-2.2-5-5S899.7,92.5,902.5,92.5 M902.5,91.5c-3.3,0-6,2.7-6,6
		s2.7,6,6,6s6-2.7,6-6S905.8,91.5,902.5,91.5L902.5,91.5z"/>
	<g>
		<circle fill="#AAB2BD" cx="682.5" cy="17.5" r="2.5"/>
	</g>
	<polygon fill="#AAB2BD" points="472.5,90 477.5,85 467.5,85 	"/>
	<g>
		<path fill="#8CC152" d="M22.5,345c-4.1,0-7.5-3.4-7.5-7.5s3.4-7.5,7.5-7.5s7.5,3.4,7.5,7.5S26.6,345,22.5,345z"/>
		<path fill="#AAB2BD" d="M22.5,332.5c2.8,0,5,2.2,5,5s-2.2,5-5,5s-5-2.2-5-5S19.7,332.5,22.5,332.5 M22.5,327.5
			c-5.5,0-10,4.5-10,10s4.5,10,10,10s10-4.5,10-10S28,327.5,22.5,327.5L22.5,327.5z"/>
	</g>
	<path fill="#FFFFFF" d="M22.5,332.5c2.8,0,5,2.2,5,5s-2.2,5-5,5s-5-2.2-5-5S19.7,332.5,22.5,332.5 M22.5,331.5c-3.3,0-6,2.7-6,6
		s2.7,6,6,6s6-2.7,6-6S25.8,331.5,22.5,331.5L22.5,331.5z"/>
	<line fill="none" stroke="#AAB2BD" stroke-width="2" stroke-miterlimit="10" x1="437" y1="655" x2="437" y2="610"/>
	<rect x="265" y="402.3" fill="none" width="135" height="32.7"/>
	<text transform="matrix(0.9989 0 0 1 265.0005 252.9672)" fill="#EBEEF2" font-family="'OpenSans-Semibold'" font-size="14">Action Title</text>
	<text transform="matrix(0.9989 0 0 1 265.0005 269.767)" fill="#EBEEF2" font-family="'OpenSans-Semibold'" font-size="14">Type: Inactive</text>
</g>
</svg>
